<?xml version="1.0" encoding="utf-8"?>
<!-- Generator: Adobe Illustrator 16.0.0, SVG Export Plug-In . SVG Version: 6.00 Build 0)  -->
<!DOCTYPE svg PUBLIC "-//W3C//DTD SVG 1.1//EN" "http://www.w3.org/Graphics/SVG/1.1/DTD/svg11.dtd">
<svg version="1.1" id="Layer_1" xmlns="http://www.w3.org/2000/svg" xmlns:xlink="http://www.w3.org/1999/xlink" x="0px" y="0px"
	 width="14px" height="14px" viewBox="0 0 14 14" enable-background="new 0 0 14 14" xml:space="preserve">
<path fill="#ffffff" d="M7,0C3.14,0,0,3.14,0,7c0,3.859,3.14,7,7,7c3.859,0,7-3.141,7-7C14,3.14,10.859,0,7,0z M1.273,7
	c0-1.35,0.471-2.592,1.255-3.572l8.044,8.044C9.592,12.257,8.351,12.728,7,12.728C3.842,12.728,1.273,10.158,1.273,7z
	 M11.472,10.572L3.428,2.528C4.408,1.744,5.65,1.273,7,1.273c3.158,0,5.728,2.569,5.728,5.727
	C12.728,8.35,12.257,9.592,11.472,10.572z"/>
</svg>
