<svg xmlns="http://www.w3.org/2000/svg" width="13" height="16.065" viewBox="0 0 13 16.065">
    <defs>
        <style>
            .cls-1{fill:#36557e}
        </style>
    </defs>
    <g id="ico_pw">
        <path id="패스_345" d="M1566.886 1050.243a1.356 1.356 0 0 0-.939-1.292 4.965 4.965 0 0 0-.681-.172v-.2c-.019-.825.027-1.656-.073-2.474a4.377 4.377 0 0 0-3.529-3.428c-.3-.065-.606-.1-.909-.153h-.73a.819.819 0 0 1-.1.022 5.137 5.137 0 0 0-2.906 1.152 3.775 3.775 0 0 0-1.475 2.748c-.039.72-.02 1.442-.026 2.164v.192c-.137.018-.259.026-.374.052a1.435 1.435 0 0 0-1.246 1.4v6.885a1.518 1.518 0 0 0 1.68 1.445q4.816 0 9.633-.005a2.087 2.087 0 0 0 .755-.143 1.347 1.347 0 0 0 .927-1.328v-5.608c-.005-.421.001-.839-.007-1.257zm-9.745-3.03c0-.261.015-.521.041-.78l.017-.155a2.043 2.043 0 0 1 .111-.461c.019-.052.039-.1.062-.155a2.391 2.391 0 0 1 .187-.339 2.585 2.585 0 0 1 .155-.21c.028-.034.056-.068.086-.1a3.2 3.2 0 0 1 .987-.729q.128-.062.261-.113t.273-.093c.092-.028.187-.052.282-.072s.192-.037.289-.049c.049-.006.1-.012.147-.016s.1-.008.152-.01q.147-.007.295 0a3.6 3.6 0 0 1 2.144.762 2.851 2.851 0 0 1 .484.5 2.621 2.621 0 0 1 .283.471 2.577 2.577 0 0 1 .1.256c.017.051.033.1.047.156.02.075.037.152.051.229 0 .012 0 .024.006.035a2.619 2.619 0 0 1 .035.412v2.046h-6.472c-.009-.008-.016-.013-.016-.017v-.313c0-.366-.012-.732-.011-1.1.004-.051.004-.103.005-.155zm8.11 9.979H1555.745c-.184 0-.233-.039-.232-.2.007-2.2 0-4.4 0-6.6v-.175h9.738z" class="cls-1" transform="translate(-1553.89 -1042.526)"/>
        <path id="패스_346" d="M1567.949 1070.332a.464.464 0 0 1 0-.047.661.661 0 0 0-.316-.693 1.181 1.181 0 0 1-.353-1.547 1.661 1.661 0 0 1 1.619-.809 1.544 1.544 0 0 1 1.429 1.057 1.276 1.276 0 0 1-.646 1.454.205.205 0 0 0-.12.2c.007.245.006.49 0 .736a.813.813 0 0 1-1.614 0c-.001-.111.001-.231.001-.351z" class="cls-1" transform="translate(-1562.258 -1058.138)"/>
    </g>
</svg>
